<svg xmlns="http://www.w3.org/2000/svg" viewBox="0 0 1200 360" width="1200" height="360" role="img">
<title>Flight telemetry. Grade B. Commits, all time: 931. Pull requests: 103. Stars earned: 26. Commits, last 12 months: 221. Followers: 45. Public repositories: 22.</title>
<style>
  @keyframes twinkle { 0%, 100% { opacity: 0.25 } 50% { opacity: 1 } }
  @keyframes spin { to { transform: rotate(360deg) } }
  @keyframes drift { to { transform: translateX(var(--drift)) } }
  .t1 { animation: twinkle 3.1s ease-in-out infinite }
  .t2 { animation: twinkle 4.7s ease-in-out infinite }
  .t3 { animation: twinkle 6.3s ease-in-out infinite }
  @media (prefers-reduced-motion: reduce) {
    * { animation: none !important }
    .cover, .transient { display: none }
  }
  @keyframes fill { from { stroke-dasharray: 0 565.49 } }
  .arc { animation: fill 2.6s ease-out backwards }
</style>
<defs><linearGradient id="tg" x1="0" y1="0" x2="0" y2="1"><stop offset="0" stop-color="#151A45"/><stop offset="1" stop-color="#090B1A"/></linearGradient>
<clipPath id="tc"><rect width="1200" height="360" rx="24"/></clipPath><radialGradient id="tn0"><stop offset="0" stop-color="#4B3BB8" stop-opacity="0.34"/><stop offset="1" stop-color="#4B3BB8" stop-opacity="0"/></radialGradient><radialGradient id="tn1"><stop offset="0" stop-color="#8A2F7A" stop-opacity="0.2"/><stop offset="1" stop-color="#8A2F7A" stop-opacity="0"/></radialGradient>
<linearGradient id="ta" x1="0" y1="0" x2="1" y2="1"><stop offset="0" stop-color="#FFD27A"/><stop offset="1" stop-color="#A99BFF"/></linearGradient>
<radialGradient id="td" cx="0.35" cy="0.3" r="0.9"><stop offset="0" stop-color="#2A2470"/><stop offset="1" stop-color="#0D1024"/></radialGradient></defs>
<g clip-path="url(#tc)"><rect width="1200" height="360" fill="url(#tg)"/><circle cx="200" cy="215" r="330" fill="url(#tn0)"/><circle cx="1040" cy="380" r="360" fill="url(#tn1)"/>
<circle class="t3" style="animation-delay:-3.47s" cx="833.39" cy="74.61" r="1.13" fill="#FFFFFF"/><circle class="t3" style="animation-delay:-1.77s" cx="0.21" cy="72.22" r="1.28" fill="#FFFFFF"/><circle class="t3" style="animation-delay:-4.34s" cx="850.11" cy="347.38" r="1.09" fill="#FFFFFF"/><circle class="t3" style="animation-delay:-3.2s" cx="993.26" cy="83.43" r="0.88" fill="#FFFFFF"/><circle class="t3" style="animation-delay:-4.65s" cx="106.84" cy="83.2" r="1.22" fill="#FFFFFF"/><circle class="t2" style="animation-delay:-0.69s" cx="401.98" cy="105.53" r="0.8" fill="#FFFFFF"/><circle class="t1" style="animation-delay:-0.01s" cx="310.86" cy="71.82" r="1.36" fill="#FFFFFF"/><circle class="t3" style="animation-delay:-3.65s" cx="397.17" cy="102.16" r="1.19" fill="#FFFFFF"/><circle class="t3" style="animation-delay:-3.63s" cx="64.55" cy="89.63" r="1.09" fill="#FFFFFF"/><circle class="t2" style="animation-delay:-1.48s" cx="1124.59" cy="40.14" r="1.12" fill="#FFFFFF"/><circle class="t2" style="animation-delay:-1.17s" cx="976.12" cy="8.89" r="1.45" fill="#FFFFFF"/><circle class="t3" style="animation-delay:-5.95s" cx="473.21" cy="97.1" r="1.07" fill="#FFFFFF"/><circle class="t3" style="animation-delay:-2.25s" cx="363.69" cy="230.18" r="1.32" fill="#FFFFFF"/><circle class="t1" style="animation-delay:-4.54s" cx="944.69" cy="84.54" r="1.32" fill="#FFFFFF"/><circle class="t1" style="animation-delay:-4.18s" cx="89.34" cy="106.72" r="1.34" fill="#FFFFFF"/><circle class="t3" style="animation-delay:-2.83s" cx="447.61" cy="67.03" r="1.15" fill="#FFFFFF"/><circle class="t3" style="animation-delay:-3.81s" cx="140.03" cy="356.75" r="0.92" fill="#FFFFFF"/><circle class="t3" style="animation-delay:-5.58s" cx="1101.01" cy="69.28" r="1.34" fill="#FFFFFF"/><circle class="t2" style="animation-delay:-2.31s" cx="137.64" cy="11.57" r="0.85" fill="#FFFFFF"/><circle class="t2" style="animation-delay:-4.67s" cx="260.63" cy="185.22" r="1.47" fill="#FFFFFF"/><circle class="t2" style="animation-delay:-5.11s" cx="473.96" cy="64.29" r="0.85" fill="#FFFFFF"/><circle class="t1" style="animation-delay:-1.6s" cx="188.97" cy="226.57" r="1.41" fill="#FFFFFF"/><circle class="t3" style="animation-delay:-5.1s" cx="258.76" cy="149.05" r="0.74" fill="#FFFFFF"/><circle class="t2" style="animation-delay:-2.22s" cx="599.86" cy="3.61" r="1.27" fill="#FFFFFF"/><circle class="t2" style="animation-delay:-3.8s" cx="1.7" cy="236.23" r="0.75" fill="#FFFFFF"/><circle class="t2" style="animation-delay:-4.92s" cx="487.68" cy="112.72" r="1.12" fill="#FFFFFF"/><circle class="t3" style="animation-delay:-4.45s" cx="352.04" cy="11.5" r="1.39" fill="#FFFFFF"/><circle class="t2" style="animation-delay:-1.13s" cx="258.49" cy="176.29" r="0.74" fill="#FFFFFF"/><circle class="t3" style="animation-delay:-5.95s" cx="879.83" cy="98.63" r="1.38" fill="#FFFFFF"/><circle class="t1" style="animation-delay:-1.17s" cx="296.67" cy="233.42" r="0.69" fill="#FFFFFF"/><circle class="t1" style="animation-delay:-4.51s" cx="165.31" cy="149.55" r="1.35" fill="#FFFFFF"/><circle class="t1" style="animation-delay:-3.32s" cx="62.04" cy="303.91" r="1.23" fill="#FFFFFF"/><circle class="t1" style="animation-delay:-1.34s" cx="751.91" cy="102.08" r="0.61" fill="#FFFFFF"/><circle class="t3" style="animation-delay:-3.8s" cx="183.07" cy="168.17" r="0.78" fill="#FFFFFF"/><circle class="t2" style="animation-delay:-1.88s" cx="242.25" cy="141.57" r="1.11" fill="#FFFFFF"/><circle class="t1" style="animation-delay:-1.18s" cx="290.7" cy="187.87" r="1.06" fill="#FFFFFF"/><circle class="t2" style="animation-delay:-0.68s" cx="1178.74" cy="10.64" r="1.21" fill="#FFFFFF"/><circle class="t1" style="animation-delay:-4.27s" cx="179.85" cy="338.4" r="1.39" fill="#FFFFFF"/><circle class="t2" style="animation-delay:-2.63s" cx="49.82" cy="309.16" r="1.46" fill="#FFFFFF"/><circle class="t2" style="animation-delay:-1.35s" cx="1179.27" cy="102.47" r="1.03" fill="#FFFFFF"/><circle class="t3" style="animation-delay:-4.01s" cx="346.7" cy="172.21" r="0.7" fill="#FFFFFF"/><circle class="t1" style="animation-delay:-2.95s" cx="365.09" cy="247.29" r="1.13" fill="#FFFFFF"/><circle class="t1" style="animation-delay:-4.65s" cx="1110.49" cy="43.08" r="0.99" fill="#FFFFFF"/><circle class="t2" style="animation-delay:-1.74s" cx="1114.62" cy="70.64" r="1.12" fill="#FFFFFF"/><circle class="t2" style="animation-delay:-4.8s" cx="194.2" cy="216.28" r="0.96" fill="#FFFFFF"/><circle class="t2" style="animation-delay:-0.04s" cx="804.05" cy="46.68" r="1.08" fill="#FFFFFF"/><circle class="t2" style="animation-delay:-0.92s" cx="374.61" cy="281.88" r="1.39" fill="#FFFFFF"/><circle class="t1" style="animation-delay:-0.94s" cx="562.38" cy="344.74" r="1.22" fill="#FFFFFF"/><circle class="t2" style="animation-delay:0s" cx="607.81" cy="61.27" r="1.19" fill="#FFFFFF"/><circle class="t3" style="animation-delay:-5.73s" cx="254.71" cy="306.45" r="1.27" fill="#FFFFFF"/><circle class="t1" style="animation-delay:-1s" cx="68.86" cy="269.23" r="1.25" fill="#FFFFFF"/><circle class="t1" style="animation-delay:-5.69s" cx="83.52" cy="343.42" r="0.8" fill="#FFFFFF"/><circle class="t2" style="animation-delay:-4.37s" cx="293.37" cy="300.11" r="0.86" fill="#FFFFFF"/><circle class="t1" style="animation-delay:-4.38s" cx="319.67" cy="304.59" r="0.98" fill="#FFFFFF"/><circle class="t3" style="animation-delay:-4.69s" cx="391.92" cy="49.03" r="0.84" fill="#FFFFFF"/><circle class="t2" style="animation-delay:-2.27s" cx="467.95" cy="338.96" r="0.76" fill="#FFFFFF"/><circle class="t1" style="animation-delay:-1.36s" cx="259.29" cy="173.1" r="1.18" fill="#FFFFFF"/><circle class="t2" style="animation-delay:-2.05s" cx="659.16" cy="65.9" r="0.99" fill="#FFFFFF"/>
<text x="72" y="66" font-family="ui-monospace, 'Cascadia Code', 'SF Mono', Consolas, Menlo, monospace" font-size="16" letter-spacing="2.5" fill="#A99BFF">FLIGHT TELEMETRY</text>
<text x="1128" y="66" text-anchor="end" font-family="ui-monospace, 'Cascadia Code', 'SF Mono', Consolas, Menlo, monospace" font-size="14" fill="#A4A9D1">public activity on GitHub · refreshed every hour</text>
<circle cx="200" cy="216" r="76" fill="url(#td)"/>
<circle cx="200" cy="216" r="90" fill="none" stroke="#2A2F5C" stroke-width="10"/>
<circle class="arc" cx="200" cy="216" r="90" fill="none" stroke="url(#ta)" stroke-width="10" stroke-linecap="round" stroke-dasharray="255.33 565.49" transform="rotate(-90 200 216)"/>
<g style="transform-origin:200px 216px;animation:spin 18s linear infinite"><circle cx="200" cy="104" r="6" fill="#EEF0FF"/></g>
<text x="200" y="234" text-anchor="middle" font-family="'Segoe UI', system-ui, -apple-system, 'Helvetica Neue', Arial, sans-serif" font-size="74" font-weight="700" fill="#EEF0FF">B</text>
<text x="200" y="264" text-anchor="middle" font-family="ui-monospace, 'Cascadia Code', 'SF Mono', Consolas, Menlo, monospace" font-size="14" letter-spacing="3" fill="#A4A9D1">GRADE</text>
<g class="t1" style="animation-delay:0s"><path fill="#FFD27A" d="M400 159Q402.4 164.6 408 167Q402.4 169.4 400 175Q397.6 169.4 392 167Q397.6 164.6 400 159Z"/></g>
<text x="424" y="184" font-family="'Segoe UI', system-ui, -apple-system, 'Helvetica Neue', Arial, sans-serif" font-size="48" font-weight="700" fill="#EEF0FF">931</text>
<text x="424" y="214" font-family="'Segoe UI', system-ui, -apple-system, 'Helvetica Neue', Arial, sans-serif" font-size="19" fill="#A4A9D1">Commits, all time</text>
<g class="t2" style="animation-delay:-0.8s"><path fill="#FFD27A" d="M692 159Q694.4 164.6 700 167Q694.4 169.4 692 175Q689.6 169.4 684 167Q689.6 164.6 692 159Z"/></g>
<text x="716" y="184" font-family="'Segoe UI', system-ui, -apple-system, 'Helvetica Neue', Arial, sans-serif" font-size="48" font-weight="700" fill="#EEF0FF">103</text>
<text x="716" y="214" font-family="'Segoe UI', system-ui, -apple-system, 'Helvetica Neue', Arial, sans-serif" font-size="19" fill="#A4A9D1">Pull requests</text>
<g class="t3" style="animation-delay:-1.6s"><path fill="#FFD27A" d="M928 159Q930.4 164.6 936 167Q930.4 169.4 928 175Q925.6 169.4 920 167Q925.6 164.6 928 159Z"/></g>
<text x="952" y="184" font-family="'Segoe UI', system-ui, -apple-system, 'Helvetica Neue', Arial, sans-serif" font-size="48" font-weight="700" fill="#EEF0FF">26</text>
<text x="952" y="214" font-family="'Segoe UI', system-ui, -apple-system, 'Helvetica Neue', Arial, sans-serif" font-size="19" fill="#A4A9D1">Stars earned</text>
<g class="t1" style="animation-delay:-2.4s"><path fill="#FFD27A" d="M400 265Q402.4 270.6 408 273Q402.4 275.4 400 281Q397.6 275.4 392 273Q397.6 270.6 400 265Z"/></g>
<text x="424" y="290" font-family="'Segoe UI', system-ui, -apple-system, 'Helvetica Neue', Arial, sans-serif" font-size="48" font-weight="700" fill="#EEF0FF">221</text>
<text x="424" y="320" font-family="'Segoe UI', system-ui, -apple-system, 'Helvetica Neue', Arial, sans-serif" font-size="19" fill="#A4A9D1">Commits, last 12 months</text>
<g class="t2" style="animation-delay:-3.2s"><path fill="#FFD27A" d="M692 265Q694.4 270.6 700 273Q694.4 275.4 692 281Q689.6 275.4 684 273Q689.6 270.6 692 265Z"/></g>
<text x="716" y="290" font-family="'Segoe UI', system-ui, -apple-system, 'Helvetica Neue', Arial, sans-serif" font-size="48" font-weight="700" fill="#EEF0FF">45</text>
<text x="716" y="320" font-family="'Segoe UI', system-ui, -apple-system, 'Helvetica Neue', Arial, sans-serif" font-size="19" fill="#A4A9D1">Followers</text>
<g class="t3" style="animation-delay:-4s"><path fill="#FFD27A" d="M928 265Q930.4 270.6 936 273Q930.4 275.4 928 281Q925.6 275.4 920 273Q925.6 270.6 928 265Z"/></g>
<text x="952" y="290" font-family="'Segoe UI', system-ui, -apple-system, 'Helvetica Neue', Arial, sans-serif" font-size="48" font-weight="700" fill="#EEF0FF">22</text>
<text x="952" y="320" font-family="'Segoe UI', system-ui, -apple-system, 'Helvetica Neue', Arial, sans-serif" font-size="19" fill="#A4A9D1">Public repositories</text>
</g><rect x="0.5" y="0.5" width="1199" height="359" rx="24" fill="none" stroke="#2A2F5C"/>
</svg>
